<svg version="1" xmlns="http://www.w3.org/2000/svg" width="1365.333" height="1365.333" viewBox="0 0 1024.000000 1024.000000"><path d="M793 492.1v51l2.3-.3 2.2-.3.3-50.8.2-50.7h-5v51.1zM876.5 445.2c1.6 12.1 3.4 30.2 3 30.7-.3.2-7.1-2.4-15.2-5.9-8.1-3.4-15.3-6.5-16-6.7-.8-.3-2.6 4-5.2 12.3-2.2 7-4 12.8-3.8 12.9.1.1 7.1 1.7 15.5 3.6 8.4 1.8 15.8 3.6 16.4 4 .7.5-3.2 5.4-10.5 13.3-6.4 6.9-11.7 12.7-11.7 13 0 .6 20.9 15.6 21.9 15.6.4 0 4.8-6.5 9.7-14.5 4.9-8 9.1-14.5 9.4-14.5.3 0 4.3 6.7 9 14.9 5.1 9.1 8.9 14.7 9.5 14.2.5-.4 5.6-4 11.3-8 5.6-4 10.2-7.5 10.2-7.7 0-.2-5.2-6.1-11.5-13.1s-11.3-12.9-11.1-13.1c.3-.2 7.3-1.9 15.8-3.8 8.4-1.9 15.8-3.6 16.5-3.8.8-.3 0-4.2-2.6-12.5-2-6.6-3.9-12.3-4.2-12.6-.4-.3-7.7 2.5-16.3 6.1-8.6 3.6-15.8 6.5-16 6.3-.2-.2.5-7.2 1.5-15.4 1-8.3 1.8-16 1.9-17.3 0-2.2-.1-2.2-14.1-2.2h-14l.6 4.2zM83 491.5V533H105.3l-.6-31.2c-.3-17.2-.3-30.7.1-30.1.4.7 5 14.7 10.2 31.3l9.5 30 10.4-.2 10.4-.3 10.3-30.5 10.2-30.5.1 30.7.1 30.8h22v-83h-33.7l-9.3 27.7-9.4 27.7-1.7-5.5c-1-3-5-15.4-8.9-27.7l-7.1-22.2H83v41.5zM209 491.5V533h22v-83h-22v41.5zM252 491.4V533h22v-32h5.4c4.9 0 5.7.3 8.4 3.4 2 2.3 4.3 7.5 7.2 16l4.2 12.6h11.4c6.3 0 11.4-.2 11.4-.4 0-1.2-11.2-31-12.9-34.4-1.1-2.2-3.1-4.4-4.3-4.8-2-.6-1.9-.8 1.8-2.6 8.7-4.4 11.9-10.5 11.2-21.1-.5-8.3-3.7-12.8-11.7-16.6-5.5-2.5-6.1-2.6-29.8-2.9l-24.3-.4v41.6zm37.2-24.4c4.4 1.3 6.8 4.3 6.8 8.6 0 6.4-5.3 9.3-16.7 9.4H274v-19h5.8c3.1 0 7.4.5 9.4 1zM346.7 486.2c-7.5 20-14.6 38.7-15.7 41.5l-2 5.3H351.7l3-8.3 2.9-8.2h31.8l2.9 8.2 3 8.3h11.8c6.6 0 11.9-.3 11.9-.8 0-.4-7.1-19-15.7-41.5L387.6 450h-27.1l-13.8 36.2zm31.1-6.5c1.8 6 3.9 12.9 4.7 15.5l1.4 4.8H363.2l5.1-15.5c2.8-8.5 5.4-15.5 5.7-15.5.3 0 2 4.8 3.8 10.7zM429 491.5V533h22.4c19.5 0 23.2-.3 28.8-2 9.6-3 14.9-8.8 16.3-18.1 1-6.4-1-12.7-5.2-16.6-1.9-1.8-3.8-3.3-4.3-3.3s-2.1-.5-3.7-1.1l-2.8-1.1 3-1.5c7.6-3.9 10.7-9.1 10.8-17.8.1-7.1-1.8-11.2-7.3-15.6-6-4.8-12.9-5.9-36.7-5.9H429v41.5zm39-23.7c3.2 1.6 3.5 2.1 3.5 6.1 0 6.3-3.1 8.4-13.1 8.9l-7.4.4V466h6.8c4.4 0 7.9.6 10.2 1.8zm2.8 32.9c1.8 1.3 2.8 3.1 3 5.3.8 8.3-2.4 10.8-14.4 11.2l-7.9.3-.3-8.4c-.2-4.6 0-9.1.3-9.9.9-2.3 15.7-1.2 19.3 1.5zM512 491.5V533h60v-15l-18.7-.2-18.8-.3-.3-9.3-.3-9.2H569v-16h-35v-17h37v-16h-59v41.5zM612.9 452.7c-.6 1.6-7.7 20.2-15.9 41.5L582.3 533h22.5l3.3-8.5 3.2-8.5H642.6l2.9 8.5 3 8.5H673l-.9-2.3c-.5-1.2-7.5-19.3-15.6-40.2-8.1-20.9-14.9-38.6-15.2-39.3-.4-.9-4.1-1.2-13.9-1.2H614l-1.1 2.7zm19.6 31.7c2.5 8.1 4.5 15 4.5 15.2 0 .2-4.5.4-10 .4s-10-.3-10-.7c0-.6 8.3-26.2 9.6-29.8.4-1 .9-1.5 1.1-.9.1.5 2.3 7.6 4.8 15.8zM679 480c0 28 .1 30.3 2.1 35.6 4 10.5 12.7 16.6 26.9 18.6 14.7 2.1 29.4-2.1 36.4-10.4 6.6-7.7 7.1-10.7 7.1-43.8v-29.5l-11.2-.3-11.3-.3v28.3c0 25.6-.2 28.7-1.9 32.5-2.3 4.9-6.2 7.3-12.1 7.3-5.3 0-9.5-2.5-11.7-7-1.6-3-1.8-7.2-2.1-32.3l-.3-28.7H679v30zM512.7 566.7c-.9 3.2-2.8 9.3-4.1 13.5-2 6.4-2.2 7.8-1 7.8.8 0 2-1.4 2.5-3 1-2.8 1.4-3 6.5-3 5.2 0 5.6.2 6.5 3 1 2.7 3.9 4.3 3.9 2.1 0-.5-1.8-6.5-4-13.5-3.7-11.3-4.3-12.6-6.4-12.6-1.9 0-2.5.9-3.9 5.7zm6.3 4.9c1.1 3.6 2 6.8 2 7 0 .2-2.1.4-4.6.4-3.7 0-4.5-.3-4-1.5.3-.9 1.3-4 2.2-7 .8-3 1.7-5.5 1.9-5.5.2 0 1.3 3 2.5 6.6zM542.1 563.6c-1.7 2.2-2.1 4.1-2.1 10.8 0 4.4.6 9.2 1.3 10.5 3.2 6.3 14.7 4.4 14.7-2.5 0-3.4-2.3-3-3.7.6-1.4 3.7-5.4 4.1-7.7.8-1.8-2.5-2.2-13.1-.7-17.1 1.7-4.3 7.3-4.6 8.6-.6.8 2.5 3.5 2.5 3.5 0 0-3.2-2.8-5.1-7.5-5.1-3.5 0-4.8.5-6.4 2.6zM618 562.6c0 .9.7 1.4 1.7 1.2 2.5-.5 2.8-2.8.4-2.8-1.2 0-2.1.6-2.1 1.6zM700 574.5V588h5.8c4.4 0 6.3-.5 7.9-1.9 2.5-2.4 3.7-9.5 2.8-16.2-.9-6.6-3.8-8.9-11.1-8.9H700v13.5zm11.8-9.3c1.7 1.7 1.6 17.2-.1 18.6-.7.7-2.9 1.3-4.8 1.4l-3.4.3-.3-10.8-.3-10.7h3.9c2.1 0 4.3.5 5 1.2zM722 562.5c0 .8.9 1.5 2 1.5s2-.7 2-1.5-.9-1.5-2-1.5-2 .7-2 1.5zM750 562.5c0 .8.7 1.5 1.5 1.5s1.5-.7 1.5-1.5-.7-1.5-1.5-1.5-1.5.7-1.5 1.5zM788 574.5c0 11.3.2 13.5 1.5 13.5s1.5-2.2 1.5-13.5-.2-13.5-1.5-13.5-1.5 2.2-1.5 13.5zM806 574.5V588h6.5c7.8 0 10.5-1.9 10.5-7.5 0-2.6-.6-3.9-2.5-5.1-2.5-1.7-2.5-1.7-.5-3.1 1.3-.9 2-2.5 2-4.8 0-4.7-2.9-6.5-10.2-6.5H806v13.5zm12-9c1.8 2.2.4 6.4-2.4 7.1-4.7 1.1-6.1.2-6.4-4.4l-.3-4.2h3.9c2.3 0 4.5.6 5.2 1.5zm.9 12c2.3 2.3.4 6.7-3.6 7.8-4.9 1.5-6.3.4-6.3-4.6 0-2.4.3-4.7.8-5.1 1.1-1.2 7.4.1 9.1 1.9zM865 562.5c0 .8.7 1.5 1.5 1.5s1.5-.7 1.5-1.5-.7-1.5-1.5-1.5-1.5.7-1.5 1.5zM760.3 564.7c-.7.3-1.3 1.3-1.3 2.4 0 1-.7 1.9-1.5 1.9s-1.5.4-1.5 1c0 .5.7 1 1.5 1 1.2 0 1.5 1.6 1.5 8 0 7 .2 8.1 2.1 9 2.2 1.2 4.9.7 4.9-1 0-.5-.9-1-2-1-1.8 0-2-.7-2-7.5s.2-7.5 2-7.5c1.1 0 2-.5 2-1 0-.6-.9-1-1.9-1-1.3 0-2.1-.8-2.3-2.3-.2-1.4-.8-2.2-1.5-2zM681 567c0 1.3-.7 2-2 2-1.1 0-2 .4-2 .9s.9 1.1 2 1.4c1.8.5 2 1.4 2 8.6 0 7.8.1 8.1 2.6 8.7 3.7.9 5.5-1.2 2.1-2.5-2.6-1-2.7-1.4-2.7-7.7 0-5.7.3-6.7 2-7.1 1.1-.3 2-.9 2-1.4 0-.5-.9-.9-2-.9-1.3 0-2-.7-2-2 0-1.1-.4-2-1-2-.5 0-1 .9-1 2zM562.6 571.2c-1.9 2.7-2.1 12.7-.3 15.1.6.9 2.6 2 4.4 2.3 2.6.5 3.7.1 5.7-1.9 2.1-2.2 2.6-3.6 2.6-7.9 0-7.2-1.9-9.8-7-9.8-2.9 0-4.3.6-5.4 2.2zm8.2 1c.7.7 1.2 3.5 1.2 6.3 0 5.5-1.2 7.5-4.6 7.5-2.7 0-3.4-1.7-3.4-7.9 0-4.9 1.3-7.1 4-7.1.9 0 2.1.5 2.8 1.2zM581.6 571.2c-2.1 3-2.1 11.7 0 14.7 1.4 2 2.3 2.2 5.5 1.8 2.8-.4 3.9-.1 3.9.8 0 4.3-3 5.7-7 3.3-2.4-1.5-3.7-.4-2 1.7 1.5 1.8 8.1 2 9.8.3 1.5-1.5 1.7-24.8.2-24.8-.5 0-1 .5-1 1.2 0 .9-.3.9-1.2 0-2-2-6.5-1.4-8.2 1zm8.8 3.6c2 7.1-2.6 14.4-6.1 9.6-1.6-2.2-1.7-8.8-.2-11.5 1.6-3.1 5.1-2.1 6.3 1.9zM599.4 571.2c.3 1.3.6 5.6.6 9.5 0 4.2.4 7.3 1 7.3s1-2.9 1-6.6c0-7.2 1.2-10.4 3.8-10.4 3.3 0 4.2 2.2 4.2 9.7 0 5.8.3 7.3 1.5 7.3s1.5-1.5 1.5-7.6c0-9.3-1-11.4-5.3-11.4-1.8 0-3.8.5-4.5 1.2-.9.9-1.2.9-1.2 0 0-.7-.7-1.2-1.6-1.2-1.2 0-1.5.6-1 2.2zM619 578.5c0 5.7.4 9.5 1 9.5s1-3.8 1-9.5-.4-9.5-1-9.5-1 3.8-1 9.5zM626 570c0 .5 1.5 1 3.3 1 1.9 0 3.6.3 4 .6.3.3-1.2 3.4-3.4 6.9-5.5 8.7-5.3 9.5 2.1 9.5 7 0 8.2-1.7 1.5-2.2l-4.5-.3 4-6.5c5.5-9 5.3-10-1.5-10-3 0-5.5.4-5.5 1zM643.6 570.6c-.9.8-1.6 2-1.6 2.5 0 1.5 3 1 3.6-.6.9-2.2 5.1-1.9 5.9.5.9 2.9-.2 4-3.9 4-1.7 0-3.7.5-4.4 1.2-1.7 1.7-1.5 7.4.4 9.2 1.9 2 3.4 2 6.2 0 1.2-.8 2.2-1 2.2-.5 0 .6.7 1.1 1.5 1.1 2.2 0 2.1-13.7-.1-16.8-1.8-2.6-7.4-3-9.8-.6zm8.4 10.2c0 4.6-6 7.1-6.8 2.9-.6-3.2.6-4.7 3.8-4.7 2.2 0 3 .5 3 1.8zM661 578.5c0 7.8.3 9.5 1.5 9.5s1.5-1.5 1.5-7.3c0-7.5.9-9.7 4.2-9.7 2.6 0 3.8 3.2 3.8 10.4 0 3.7.4 6.6 1 6.6 1.5 0 1.3-16.3-.2-17.8s-6.1-1.5-7.6 0c-.9.9-1.2.9-1.2 0 0-.7-.7-1.2-1.5-1.2-1.2 0-1.5 1.7-1.5 9.5zM723 578.5c0 5.7.4 9.5 1 9.5s1-3.8 1-9.5-.4-9.5-1-9.5-1 3.8-1 9.5zM732.6 571.2c-1 1.4-1.6 4.4-1.6 7.9 0 6.7 2.1 9.4 7 8.7 2.6-.4 3-.2 3 1.9 0 2.8-2.6 4.1-5.1 2.5-2.5-1.6-3.9-1.5-3.9.2s2.2 2.6 6.4 2.6c5.1 0 5.6-1.2 5.6-14.2 0-9.8-.3-11.8-1.5-11.8-.8 0-1.5.5-1.5 1.2 0 .9-.3.9-1.2 0-1.9-1.9-5.5-1.4-7.2 1zm7.3 1.2c1.8 2.1 1 11.7-1.1 12.9-2.9 1.9-4.8-.9-4.8-6.7 0-6.8 2.9-9.8 5.9-6.2zM750 578.5c0 7.8.3 9.5 1.5 9.5s1.5-1.7 1.5-9.5-.3-9.5-1.5-9.5-1.5 1.7-1.5 9.5zM771.2 570.2c-.7.7-1.2 1.8-1.2 2.5 0 1.8 2.7 1.6 3.4-.3 1-2.7 5.1-1.3 5.4 1.8.3 2.6.1 2.8-3.1 2.8-6 0-8.8 5.9-4.7 10 2.1 2.1 2.9 2.3 5.4 1.4 2.5-.9 1.9-2.2-1.1-2.6-2.1-.2-2.9-.9-3.1-2.7-.4-2.7 1.2-4.1 4.7-4.1 2.1 0 2.3.4 1.9 3.2-.6 4-.1 5.8 1.8 5.8 1.1 0 1.4-1.7 1.4-7.6 0-9.6-.9-11.4-5.8-11.4-2.1 0-4.3.5-5 1.2zM829 578c0 7.8.2 9.1 1.9 10 2.6 1.4 3.4 1.3 5.7-.6 1.8-1.5 1.8-1.5 0-1-3.5 1.2-4.6-1.1-4.6-9.5 0-6.4-.3-7.9-1.5-7.9s-1.5 1.7-1.5 9zM838.8 577.2c-.4 9.4-.2 10.8 1.8 10.8 1.1 0 1.4-2 1.4-9.5 0-7.6-.3-9.5-1.4-9.5-1.1 0-1.5 1.9-1.8 8.2zM849.2 570.2c-.7.7-1.2 2.4-1.2 4 0 2.2.9 3.2 4.5 5.4 3 1.7 4.5 3.2 4.3 4.3-.4 2.2-4.9 2.7-6 .7-.9-1.6-3.8-2.2-3.8-.8 0 2.4 3 4.6 6.3 4.6 4.2 0 6.7-1.8 6.7-4.8 0-2.9-.9-4.1-5-6.3-2.1-1.2-3.5-2.7-3.5-3.9 0-2.4 3.5-3.1 4.7-1 1.1 1.9 3.8 2.1 3.8.3 0-2.3-2.3-3.7-6-3.7-2 0-4.1.5-4.8 1.2zM865 578.5c0 7.8.3 9.5 1.5 9.5s1.5-1.7 1.5-9.5-.3-9.5-1.5-9.5-1.5 1.7-1.5 9.5zM873 578.5c0 7.8.3 9.5 1.5 9.5s1.5-1.4 1.5-6.6c0-7.2 1.2-10.4 3.8-10.4 3.3 0 4.2 2.2 4.2 9.7 0 5.8.3 7.3 1.5 7.3s1.5-1.4 1.5-6.9c0-9.6-1.1-12.1-5.3-12.1-1.8 0-3.8.5-4.5 1.2-.9.9-1.2.9-1.2 0 0-.7-.7-1.2-1.5-1.2-1.2 0-1.5 1.7-1.5 9.5zM894.5 570.4c-1.6 1.1-2 2.7-2 8.1 0 5.9.3 6.9 2.5 8.7 1.7 1.4 3.3 1.8 5.5 1.4 2.8-.6 5.5-2.9 5.5-4.8 0-1.4-2.7-.9-4 .7-1.7 2.1-4.7 1.9-6-.4-1.8-3.5-1.2-4.1 4.5-4.1h5.5v-3.3c0-4.7-2.4-7.7-6.4-7.7-1.8 0-4.1.6-5.1 1.4zm7.3 1.8c.7.7 1.2 2 1.2 3 0 1.4-.8 1.8-4 1.8-4.1 0-4.7-.8-3-4.1 1.2-2.1 4-2.5 5.8-.7zM912.7 570.8c-3.2 3.5-1.7 6.2 5.1 9.6 2.1 1.1 3.2 2.3 3 3.4-.4 2.3-5.6 2.9-6.4.8-.8-2-3.4-2.1-3.4-.1 0 2.7 4.7 4.9 8.3 3.9 6.5-1.9 5.8-8.5-1.3-11.4-4.5-1.9-5.1-6-.9-6 1.1 0 2.2.7 2.5 1.5.7 1.6 4.4 2.1 4.4.6 0-3.9-8.4-5.5-11.3-2.3zM929.7 570.8c-3.2 3.5-1.7 6.2 5.1 9.6 2.1 1.1 3.2 2.3 3 3.4-.4 2.3-5.6 2.9-6.4.8-.8-2-3.4-2.1-3.4-.1 0 2.7 4.7 4.9 8.3 3.9 6.5-1.9 5.8-8.5-1.3-11.4-4.5-1.9-5.1-6-.9-6 1.1 0 2.2.7 2.5 1.5.7 1.6 4.4 2.1 4.4.6 0-3.9-8.4-5.5-11.3-2.3z"/></svg>